<svg id="visual" viewBox="0 0 900 600" width="900" height="600" xmlns="http://www.w3.org/2000/svg" xmlns:xlink="http://www.w3.org/1999/xlink" version="1.1"><path d="M0 407L37.5 412.5C75 418 150 429 225 444.2C300 459.3 375 478.7 450 477.5C525 476.3 600 454.7 675 449.3C750 444 825 455 862.5 460.5L900 466L900 601L862.5 601C825 601 750 601 675 601C600 601 525 601 450 601C375 601 300 601 225 601C150 601 75 601 37.5 601L0 601Z" fill="#041326" stroke-linecap="round" stroke-linejoin="miter"></path></svg>