<svg id="visual" viewBox="0 0 900 600" width="900" height="600" xmlns="http://www.w3.org/2000/svg" xmlns:xlink="http://www.w3.org/1999/xlink" version="1.1"><path d="M0 452L37.5 463.8C75 475.7 150 499.3 225 510.8C300 522.3 375 521.7 450 500.5C525 479.3 600 437.7 675 435.5C750 433.3 825 470.7 862.5 489.3L900 508L900 601L862.5 601C825 601 750 601 675 601C600 601 525 601 450 601C375 601 300 601 225 601C150 601 75 601 37.5 601L0 601Z" fill="#041326" stroke-linecap="round" stroke-linejoin="miter"></path></svg>