<svg id="visual" viewBox="0 0 900 600" width="900" height="600" xmlns="http://www.w3.org/2000/svg" xmlns:xlink="http://www.w3.org/1999/xlink" version="1.1"><path d="M0 483L37.5 492.8C75 502.7 150 522.3 225 507.8C300 493.3 375 444.7 450 432.7C525 420.7 600 445.3 675 463.3C750 481.3 825 492.7 862.5 498.3L900 504L900 601L862.5 601C825 601 750 601 675 601C600 601 525 601 450 601C375 601 300 601 225 601C150 601 75 601 37.5 601L0 601Z" fill="#041326" stroke-linecap="round" stroke-linejoin="miter"></path></svg>