<svg id="visual" viewBox="0 0 900 600" width="900" height="600" xmlns="http://www.w3.org/2000/svg" xmlns:xlink="http://www.w3.org/1999/xlink" version="1.1"><path d="M0 429L37.5 448.8C75 468.7 150 508.3 225 524.7C300 541 375 534 450 524.8C525 515.7 600 504.3 675 494.5C750 484.7 825 476.3 862.5 472.2L900 468L900 601L862.5 601C825 601 750 601 675 601C600 601 525 601 450 601C375 601 300 601 225 601C150 601 75 601 37.5 601L0 601Z" fill="#041326" stroke-linecap="round" stroke-linejoin="miter"></path></svg>