<svg id="visual" viewBox="0 0 900 600" width="900" height="600" xmlns="http://www.w3.org/2000/svg" xmlns:xlink="http://www.w3.org/1999/xlink" version="1.1"><path d="M0 115L21.5 119C43 123 86 131 128.8 137C171.7 143 214.3 147 257.2 140C300 133 343 115 385.8 115C428.7 115 471.3 133 514.2 144C557 155 600 159 642.8 153C685.7 147 728.3 131 771.2 128C814 125 857 135 878.5 140L900 145L900 0L878.5 0C857 0 814 0 771.2 0C728.3 0 685.7 0 642.8 0C600 0 557 0 514.2 0C471.3 0 428.7 0 385.8 0C343 0 300 0 257.2 0C214.3 0 171.7 0 128.8 0C86 0 43 0 21.5 0L0 0Z" fill="#030f1e"></path><path d="M0 235L21.5 235C43 235 86 235 128.8 237C171.7 239 214.3 243 257.2 242C300 241 343 235 385.8 235C428.7 235 471.3 241 514.2 249C557 257 600 267 642.8 269C685.7 271 728.3 265 771.2 262C814 259 857 259 878.5 259L900 259L900 143L878.5 138C857 133 814 123 771.2 126C728.3 129 685.7 145 642.8 151C600 157 557 153 514.2 142C471.3 131 428.7 113 385.8 113C343 113 300 131 257.2 138C214.3 145 171.7 141 128.8 135C86 129 43 121 21.5 117L0 113Z" fill="#031020"></path><path d="M0 325L21.5 327C43 329 86 333 128.8 337C171.7 341 214.3 345 257.2 343C300 341 343 333 385.8 329C428.7 325 471.3 325 514.2 329C557 333 600 341 642.8 347C685.7 353 728.3 357 771.2 355C814 353 857 345 878.5 341L900 337L900 257L878.5 257C857 257 814 257 771.2 260C728.3 263 685.7 269 642.8 267C600 265 557 255 514.2 247C471.3 239 428.7 233 385.8 233C343 233 300 239 257.2 240C214.3 241 171.7 237 128.8 235C86 233 43 233 21.5 233L0 233Z" fill="#041122"></path><path d="M0 367L21.5 371C43 375 86 383 128.8 388C171.7 393 214.3 395 257.2 393C300 391 343 385 385.8 379C428.7 373 471.3 367 514.2 371C557 375 600 389 642.8 395C685.7 401 728.3 399 771.2 397C814 395 857 393 878.5 392L900 391L900 335L878.5 339C857 343 814 351 771.2 353C728.3 355 685.7 351 642.8 345C600 339 557 331 514.2 327C471.3 323 428.7 323 385.8 327C343 331 300 339 257.2 341C214.3 343 171.7 339 128.8 335C86 331 43 327 21.5 325L0 323Z" fill="#041224"></path><path d="M0 433L21.5 435C43 437 86 441 128.8 442C171.7 443 214.3 441 257.2 441C300 441 343 443 385.8 439C428.7 435 471.3 425 514.2 427C557 429 600 443 642.8 448C685.7 453 728.3 449 771.2 448C814 447 857 449 878.5 450L900 451L900 389L878.5 390C857 391 814 393 771.2 395C728.3 397 685.7 399 642.8 393C600 387 557 373 514.2 369C471.3 365 428.7 371 385.8 377C343 383 300 389 257.2 391C214.3 393 171.7 391 128.8 386C86 381 43 373 21.5 369L0 365Z" fill="#041326"></path><path d="M0 469L21.5 474C43 479 86 489 128.8 495C171.7 501 214.3 503 257.2 503C300 503 343 501 385.8 497C428.7 493 471.3 487 514.2 486C557 485 600 489 642.8 491C685.7 493 728.3 493 771.2 492C814 491 857 489 878.5 488L900 487L900 449L878.5 448C857 447 814 445 771.2 446C728.3 447 685.7 451 642.8 446C600 441 557 427 514.2 425C471.3 423 428.7 433 385.8 437C343 441 300 439 257.2 439C214.3 439 171.7 441 128.8 440C86 439 43 435 21.5 433L0 431Z" fill="#051b34"></path><path d="M0 511L21.5 516C43 521 86 531 128.8 536C171.7 541 214.3 541 257.2 540C300 539 343 537 385.8 533C428.7 529 471.3 523 514.2 522C557 521 600 525 642.8 528C685.7 531 728.3 533 771.2 532C814 531 857 527 878.5 525L900 523L900 485L878.5 486C857 487 814 489 771.2 490C728.3 491 685.7 491 642.8 489C600 487 557 483 514.2 484C471.3 485 428.7 491 385.8 495C343 499 300 501 257.2 501C214.3 501 171.7 499 128.8 493C86 487 43 477 21.5 472L0 467Z" fill="#052342"></path><path d="M0 553L21.5 556C43 559 86 565 128.8 567C171.7 569 214.3 567 257.2 566C300 565 343 565 385.8 564C428.7 563 471.3 561 514.2 562C557 563 600 567 642.8 567C685.7 567 728.3 563 771.2 561C814 559 857 559 878.5 559L900 559L900 521L878.5 523C857 525 814 529 771.2 530C728.3 531 685.7 529 642.8 526C600 523 557 519 514.2 520C471.3 521 428.7 527 385.8 531C343 535 300 537 257.2 538C214.3 539 171.7 539 128.8 534C86 529 43 519 21.5 514L0 509Z" fill="#052c51"></path><path d="M0 601L21.5 601C43 601 86 601 128.8 601C171.7 601 214.3 601 257.2 601C300 601 343 601 385.8 601C428.7 601 471.3 601 514.2 601C557 601 600 601 642.8 601C685.7 601 728.3 601 771.2 601C814 601 857 601 878.5 601L900 601L900 557L878.5 557C857 557 814 557 771.2 559C728.3 561 685.7 565 642.8 565C600 565 557 561 514.2 560C471.3 559 428.7 561 385.8 562C343 563 300 563 257.2 564C214.3 565 171.7 567 128.8 565C86 563 43 557 21.5 554L0 551Z" fill="#053461"></path></svg>