<svg id="visual" viewBox="0 0 900 600" width="900" height="600" xmlns="http://www.w3.org/2000/svg" xmlns:xlink="http://www.w3.org/1999/xlink" version="1.1"><path d="M0 31L12.5 34C25 37 50 43 75 44C100 45 125 41 150 39C175 37 200 37 225 36C250 35 275 33 300 34C325 35 350 39 375 39C400 39 425 35 450 36C475 37 500 43 525 46C550 49 575 49 600 46C625 43 650 37 675 36C700 35 725 39 750 41C775 43 800 43 825 40C850 37 875 31 887.5 28L900 25L900 0L887.5 0C875 0 850 0 825 0C800 0 775 0 750 0C725 0 700 0 675 0C650 0 625 0 600 0C575 0 550 0 525 0C500 0 475 0 450 0C425 0 400 0 375 0C350 0 325 0 300 0C275 0 250 0 225 0C200 0 175 0 150 0C125 0 100 0 75 0C50 0 25 0 12.5 0L0 0Z" fill="#030f1e"></path><path d="M0 67L12.5 71C25 75 50 83 75 84C100 85 125 79 150 79C175 79 200 85 225 88C250 91 275 91 300 89C325 87 350 83 375 84C400 85 425 91 450 92C475 93 500 89 525 89C550 89 575 93 600 90C625 87 650 77 675 75C700 73 725 79 750 82C775 85 800 85 825 82C850 79 875 73 887.5 70L900 67L900 23L887.5 26C875 29 850 35 825 38C800 41 775 41 750 39C725 37 700 33 675 34C650 35 625 41 600 44C575 47 550 47 525 44C500 41 475 35 450 34C425 33 400 37 375 37C350 37 325 33 300 32C275 31 250 33 225 34C200 35 175 35 150 37C125 39 100 43 75 42C50 41 25 35 12.5 32L0 29Z" fill="#031020"></path><path d="M0 163L12.5 169C25 175 50 187 75 195C100 203 125 207 150 204C175 201 200 191 225 191C250 191 275 201 300 208C325 215 350 219 375 222C400 225 425 227 450 229C475 231 500 233 525 232C550 231 575 227 600 217C625 207 650 191 675 193C700 195 725 215 750 223C775 231 800 227 825 226C850 225 875 227 887.5 228L900 229L900 65L887.5 68C875 71 850 77 825 80C800 83 775 83 750 80C725 77 700 71 675 73C650 75 625 85 600 88C575 91 550 87 525 87C500 87 475 91 450 90C425 89 400 83 375 82C350 81 325 85 300 87C275 89 250 89 225 86C200 83 175 77 150 77C125 77 100 83 75 82C50 81 25 73 12.5 69L0 65Z" fill="#041122"></path><path d="M0 223L12.5 231C25 239 50 255 75 260C100 265 125 259 150 253C175 247 200 241 225 242C250 243 275 251 300 262C325 273 350 287 375 293C400 299 425 297 450 295C475 293 500 291 525 289C550 287 575 285 600 276C625 267 650 251 675 252C700 253 725 271 750 279C775 287 800 285 825 284C850 283 875 283 887.5 283L900 283L900 227L887.5 226C875 225 850 223 825 224C800 225 775 229 750 221C725 213 700 193 675 191C650 189 625 205 600 215C575 225 550 229 525 230C500 231 475 229 450 227C425 225 400 223 375 220C350 217 325 213 300 206C275 199 250 189 225 189C200 189 175 199 150 202C125 205 100 201 75 193C50 185 25 173 12.5 167L0 161Z" fill="#041223"></path><path d="M0 253L12.5 261C25 269 50 285 75 291C100 297 125 293 150 287C175 281 200 273 225 272C250 271 275 277 300 287C325 297 350 311 375 317C400 323 425 321 450 320C475 319 500 319 525 320C550 321 575 323 600 315C625 307 650 289 675 289C700 289 725 307 750 313C775 319 800 313 825 313C850 313 875 319 887.5 322L900 325L900 281L887.5 281C875 281 850 281 825 282C800 283 775 285 750 277C725 269 700 251 675 250C650 249 625 265 600 274C575 283 550 285 525 287C500 289 475 291 450 293C425 295 400 297 375 291C350 285 325 271 300 260C275 249 250 241 225 240C200 239 175 245 150 251C125 257 100 263 75 258C50 253 25 237 12.5 229L0 221Z" fill="#041325"></path><path d="M0 409L12.5 414C25 419 50 429 75 428C100 427 125 415 150 410C175 405 200 407 225 413C250 419 275 429 300 436C325 443 350 447 375 442C400 437 425 423 450 424C475 425 500 441 525 447C550 453 575 449 600 447C625 445 650 445 675 447C700 449 725 453 750 454C775 455 800 453 825 446C850 439 875 427 887.5 421L900 415L900 323L887.5 320C875 317 850 311 825 311C800 311 775 317 750 311C725 305 700 287 675 287C650 287 625 305 600 313C575 321 550 319 525 318C500 317 475 317 450 318C425 319 400 321 375 315C350 309 325 295 300 285C275 275 250 269 225 270C200 271 175 279 150 285C125 291 100 295 75 289C50 283 25 267 12.5 259L0 251Z" fill="#05172c"></path><path d="M0 451L12.5 456C25 461 50 471 75 469C100 467 125 453 150 450C175 447 200 455 225 464C250 473 275 483 300 486C325 489 350 485 375 478C400 471 425 461 450 462C475 463 500 475 525 481C550 487 575 487 600 489C625 491 650 495 675 495C700 495 725 491 750 489C775 487 800 487 825 482C850 477 875 467 887.5 462L900 457L900 413L887.5 419C875 425 850 437 825 444C800 451 775 453 750 452C725 451 700 447 675 445C650 443 625 443 600 445C575 447 550 451 525 445C500 439 475 423 450 422C425 421 400 435 375 440C350 445 325 441 300 434C275 427 250 417 225 411C200 405 175 403 150 408C125 413 100 425 75 426C50 427 25 417 12.5 412L0 407Z" fill="#051e39"></path><path d="M0 535L12.5 539C25 543 50 551 75 553C100 555 125 551 150 549C175 547 200 547 225 548C250 549 275 551 300 551C325 551 350 549 375 547C400 545 425 543 450 543C475 543 500 545 525 546C550 547 575 547 600 548C625 549 650 551 675 552C700 553 725 553 750 552C775 551 800 549 825 546C850 543 875 539 887.5 537L900 535L900 455L887.5 460C875 465 850 475 825 480C800 485 775 485 750 487C725 489 700 493 675 493C650 493 625 489 600 487C575 485 550 485 525 479C500 473 475 461 450 460C425 459 400 469 375 476C350 483 325 487 300 484C275 481 250 471 225 462C200 453 175 445 150 448C125 451 100 465 75 467C50 469 25 459 12.5 454L0 449Z" fill="#052546"></path><path d="M0 571L12.5 572C25 573 50 575 75 575C100 575 125 573 150 573C175 573 200 575 225 575C250 575 275 573 300 572C325 571 350 571 375 572C400 573 425 575 450 575C475 575 500 573 525 571C550 569 575 567 600 567C625 567 650 569 675 570C700 571 725 571 750 570C775 569 800 567 825 566C850 565 875 565 887.5 565L900 565L900 533L887.5 535C875 537 850 541 825 544C800 547 775 549 750 550C725 551 700 551 675 550C650 549 625 547 600 546C575 545 550 545 525 544C500 543 475 541 450 541C425 541 400 543 375 545C350 547 325 549 300 549C275 549 250 547 225 546C200 545 175 545 150 547C125 549 100 553 75 551C50 549 25 541 12.5 537L0 533Z" fill="#052c53"></path><path d="M0 601L12.5 601C25 601 50 601 75 601C100 601 125 601 150 601C175 601 200 601 225 601C250 601 275 601 300 601C325 601 350 601 375 601C400 601 425 601 450 601C475 601 500 601 525 601C550 601 575 601 600 601C625 601 650 601 675 601C700 601 725 601 750 601C775 601 800 601 825 601C850 601 875 601 887.5 601L900 601L900 563L887.5 563C875 563 850 563 825 564C800 565 775 567 750 568C725 569 700 569 675 568C650 567 625 565 600 565C575 565 550 567 525 569C500 571 475 573 450 573C425 573 400 571 375 570C350 569 325 569 300 570C275 571 250 573 225 573C200 573 175 571 150 571C125 571 100 573 75 573C50 573 25 571 12.5 570L0 569Z" fill="#053461"></path></svg>